<?xml version="1.0" encoding="utf-8"?>
<!-- Generator: Adobe Illustrator 27.0.1, SVG Export Plug-In . SVG Version: 6.00 Build 0)  -->
<svg version="1.1" id="Layer_1" xmlns="http://www.w3.org/2000/svg" xmlns:xlink="http://www.w3.org/1999/xlink" x="0px" y="0px"
	 viewBox="0 0 467.4 213.8" style="enable-background:new 0 0 467.4 213.8;" xml:space="preserve">
<style type="text/css">
	.st0{fill:#01ACD6;}
	.st1{fill:#FFFFFF;}
	.st2{font-family:'Montserrat-SemiBold';}
	.st3{font-size:99px;}
	.st4{fill:#282D33;}
	.st5{fill:#003562;}
</style>
<g>
	<circle class="st0" cx="93.3" cy="103.6" r="93.3"/>
	<text transform="matrix(1 0 0 1 64.4904 132.5283)" class="st1 st2 st3">3</text>
	<g>
		<g>
			<g>
				<g>
					<g>
						<path class="st0" d="M432.4,36.4V19.7c0-8.5,6.9-15.4,15.4-15.4c8.5,0,15.4,6.9,15.4,15.4v16.7H432.4z"/>
						<path class="st0" d="M467.4,40.7h-39.4v-21c0-10.8,8.8-19.7,19.7-19.7c10.8,0,19.7,8.8,19.7,19.7V40.7z M436.6,32.1h22.2V19.7
							c0-6.1-5-11.1-11.1-11.1c-6.1,0-11.1,5-11.1,11.1V32.1z"/>
					</g>
					<g>
						<path class="st1" d="M432.4,19.7v172h0l0,2.6c0,7.9-6,14.4-13.6,15.3c-4.2,0-136.3,0-143.2,0c7.7-0.9,13.6-7.4,13.6-15.3v-3.5
							h0.1v-171c0-7.9,5.9-14.4,13.6-15.3c4.2,0,136.3,0,143.2,0C438.3,5.3,432.4,11.8,432.4,19.7z"/>
						<path class="st4" d="M419,213.8l-104.2,0c-20.7,0-36.9,0-39.2,0l-0.5-8.6c5.6-0.6,9.8-5.4,9.8-11l0.1-174.5
							c0-10,7.5-18.4,17.4-19.5l0.5,0l103.9,0c20.7,0,36.9,0,39.2,0l0.5,8.6c-5.6,0.6-9.8,5.4-9.8,11v176.3h-0.1
							c-0.8,9.2-8,16.7-17.4,17.8L419,213.8z M314.8,205.2l103.7,0c5.5-0.7,9.6-5.4,9.6-11l-0.1-6.9h0.1V19.7c0-4,1.2-7.8,3.3-11
							c-6.7,0-15.2,0-24.7,0l-103.7,0c-5.5,0.7-9.6,5.4-9.6,11V195h-0.1c-0.1,3.7-1.3,7.2-3.3,10.2
							C296.8,205.2,305.3,205.2,314.8,205.2z"/>
					</g>
					<path class="st0" d="M408.3,194.2v-12H256.5v12c0,10,7.5,18.4,17.4,19.5l0.5,0l103.9,0c20.7,0,36.9,0,39.2,0l0.5-8.6
						C412.5,204.6,408.3,199.8,408.3,194.2z"/>
					<g>
						<path class="st4" d="M467.4,41.2h-8.6V19.7c0-6.1-5-11.1-11.1-11.1c-6.1,0-11.1,5-11.1,11.1h-8.6c0-10.8,8.8-19.7,19.7-19.7
							c10.8,0,19.7,8.8,19.7,19.7V41.2z"/>
					</g>
					<g>
						<path class="st4" d="M418.4,213.8c-9.8,0-18.8-9.3-18.8-19.6v-12.4h8.6v12.4c0,5.5,5,11,10.2,11V213.8z"/>
					</g>
				</g>
			</g>
		</g>
		<g>
			<polygon class="st5" points="401.4,171.8 390.6,164.4 379.7,171.8 379.7,142.1 390.6,142.1 401.4,142.1 			"/>
			<g>
				<path class="st0" d="M412.4,138.2c0,1.1-2,2-2.2,3.1c-0.2,1.1,1.5,2.6,1.1,3.6c-0.3,1-2.5,1.3-3,2.3c-0.5,1,0.6,2.9-0.1,3.8
					c-0.6,0.9-2.8,0.5-3.6,1.2c-0.8,0.8-0.3,3-1.2,3.6c-0.9,0.6-2.8-0.4-3.8,0.1c-1,0.5-1.2,2.7-2.3,3c-1,0.3-2.5-1.3-3.6-1.1
					c-1.1,0.2-2,2.2-3.1,2.2c-1.1,0-2.1-2-3.1-2.2c-1.1-0.2-2.6,1.5-3.6,1.1c-1-0.3-1.3-2.5-2.3-3c-1-0.5-2.9,0.6-3.8-0.1
					c-0.9-0.6-0.5-2.8-1.2-3.6c-0.8-0.8-3-0.3-3.6-1.2c-0.6-0.9,0.4-2.8-0.1-3.8c-0.5-1-2.7-1.2-3-2.3c-0.3-1,1.3-2.5,1.1-3.6
					c-0.2-1.1-2.2-2-2.2-3.1c0-1.1,2-2,2.2-3.1c0.2-1.1-1.5-2.6-1.1-3.6c0.3-1,2.5-1.3,3-2.3c0.5-1-0.6-2.9,0.1-3.8
					c0.6-0.9,2.8-0.5,3.6-1.2c0.8-0.8,0.3-3,1.2-3.6c0.9-0.6,2.8,0.4,3.8-0.1c1-0.5,1.2-2.7,2.3-3c1-0.3,2.5,1.3,3.6,1.1
					c1.1-0.2,2-2.2,3.1-2.2c1.1,0,2,2,3.1,2.2c1.1,0.2,2.6-1.5,3.6-1.1c1,0.3,1.3,2.5,2.3,3c1,0.5,2.9-0.6,3.8,0.1
					c0.9,0.6,0.5,2.8,1.2,3.6c0.8,0.8,3,0.3,3.6,1.2c0.6,0.9-0.4,2.8,0.1,3.8c0.5,1,2.7,1.2,3,2.3c0.3,1-1.3,2.5-1.1,3.6
					C410.4,136.2,412.4,137.1,412.4,138.2z"/>
				<path class="st0" d="M400.2,138.2c0,5.3-4.3,9.6-9.6,9.6c-5.3,0-9.6-4.3-9.6-9.6c0-5.3,4.3-9.6,9.6-9.6
					C395.9,128.6,400.2,132.9,400.2,138.2z"/>
			</g>
		</g>
		<g>
			<g>
				<rect x="330" y="31.1" class="st0" width="55.3" height="8.6"/>
			</g>
			<g>
				<rect x="311.1" y="52.7" class="st4" width="93.2" height="8.6"/>
			</g>
			<g>
				<rect x="311.1" y="73.9" class="st4" width="93.2" height="8.6"/>
			</g>
			<g>
				<rect x="311.1" y="95.2" class="st4" width="93.2" height="8.6"/>
			</g>
			<g>
				<rect x="311.1" y="116.4" class="st4" width="55.4" height="8.6"/>
			</g>
			<g>
				<rect x="311.1" y="137.6" class="st0" width="36.8" height="8.6"/>
			</g>
		</g>
	</g>
</g>
</svg>
