<?xml version="1.0" encoding="utf-8"?>
<!-- Generator: Adobe Illustrator 27.0.1, SVG Export Plug-In . SVG Version: 6.00 Build 0)  -->
<svg version="1.1" id="Layer_1" xmlns="http://www.w3.org/2000/svg" xmlns:xlink="http://www.w3.org/1999/xlink" x="0px" y="0px"
	 viewBox="0 0 126.7 189.1" style="enable-background:new 0 0 126.7 189.1;" xml:space="preserve">
<style type="text/css">
	.st0{fill:#FFFFFF;}
</style>
<g>
	<path class="st0" d="M101.3,125.5c23.9-30.7,25.4-60,25.4-62.1c0-35-28.4-63.4-63.4-63.4C28.4,0,0,28.4,0,63.4
		c0,2.1,1.5,31.3,25.4,62.1c2.9,3.8,4.3,9.2,5.1,14.2h-8.3v11.5H29v7.5h-6.8v11.5h82.4v-11.5H40.4v-7.5h64.1v-11.5h-8.4
		C97,134.7,98.5,129.3,101.3,125.5z M11.5,63.4c0-28.6,23.3-51.9,51.9-51.9s51.9,23.3,51.9,51.8c0,0.3-0.9,26.7-23,55.2l-0.1,0.1
		l-0.1,0.1c-2.9,3.8-5,8.7-6.4,14.6h-5.6l6.1-57.8l-11.4-1.2l-6.2,59H58.1l-6.2-59l-11.4,1.2l6.1,57.8h-5.6
		c-1.3-5.9-3.5-10.8-6.3-14.6l-0.1-0.1l-0.1-0.1C12.3,89.9,11.5,63.5,11.5,63.4z"/>
	<rect x="36.4" y="177.6" class="st0" width="53.9" height="11.5"/>
</g>
</svg>
