<?xml version="1.0" encoding="utf-8"?>
<!-- Generator: Adobe Illustrator 27.0.1, SVG Export Plug-In . SVG Version: 6.00 Build 0)  -->
<svg version="1.1" id="Layer_1" xmlns="http://www.w3.org/2000/svg" xmlns:xlink="http://www.w3.org/1999/xlink" x="0px" y="0px"
	 viewBox="0 0 187.7 187.7" style="enable-background:new 0 0 187.7 187.7;" xml:space="preserve">
<style type="text/css">
	.st0{fill:#FFFFFF;}
</style>
<g>
	<g>
		<g>
			<g>
				<path class="st0" d="M108.5,187.7l-32.4,0l-2-24c-6.5-1.8-12.7-4.6-18.5-8.2l-17.7,15l-22.9-22.9l15.5-18.3
					c-3.3-5.9-5.8-12.2-7.3-18.9L0,108.5l0-32.4l24-2c1.8-6.5,4.6-12.7,8.2-18.5l-15-17.7l22.9-22.9l18.3,15.5
					c5.9-3.3,12.2-5.8,18.9-7.3L79.2,0h32.4l2,24c6.5,1.8,12.8,4.6,18.5,8.2l17.7-15l22.9,22.9l-15.5,18.3
					c3.3,5.9,5.8,12.2,7.3,18.9l23.1,1.9l0,32.4l-24,2c-1.8,6.5-4.6,12.7-8.2,18.5l15,17.7l-22.9,22.9l-18.3-15.5
					c-5.9,3.3-12.2,5.8-18.9,7.3L108.5,187.7z M83.2,179.9l18.1,0l1.8-21.8l2.9-0.6c7.7-1.5,15-4.3,21.6-8.3l2.4-1.5l17.1,14.5
					l12.8-12.8l-14.1-16.7l1.7-2.5c4.4-6.5,7.5-13.6,9.4-21.2l0.7-2.7l22.4-1.9l0-18.1l-21.8-1.8l-0.6-2.9c-1.5-7.7-4.3-15-8.4-21.6
					l-1.5-2.4l14.5-17.1l-12.8-12.8l-16.7,14.1l-2.4-1.7c-6.5-4.4-13.6-7.5-21.2-9.4l-2.7-0.7l-1.9-22.4H86.4l-1.8,21.8l-2.9,0.6
					c-7.7,1.5-15,4.3-21.6,8.3L57.6,40L40.5,25.5L27.7,38.3L41.9,55l-1.7,2.4c-4.4,6.5-7.5,13.6-9.4,21.2l-0.7,2.7L7.8,83.2l0,18.1
					l21.8,1.8l0.6,2.9c1.5,7.7,4.3,15,8.3,21.6l1.5,2.4l-14.5,17.1L38.3,160L55,145.8l2.5,1.7c6.5,4.4,13.6,7.5,21.2,9.4l2.7,0.7
					L83.2,179.9z"/>
			</g>
		</g>
		<g>
			<path class="st0" d="M93.9,143.7c-27.5,0-49.9-22.4-49.9-49.9h7.8c0,23.2,18.9,42.1,42.1,42.1c23.2,0,42.1-18.9,42.1-42.1h7.8
				C143.7,121.3,121.4,143.7,93.9,143.7z"/>
		</g>
		<g>
			<g>
				<path class="st0" d="M51.8,93.9H44c0-1.4,0.1-2.8,0.2-4.2l7.8,0.6C51.9,91.5,51.8,92.7,51.8,93.9z"/>
			</g>
			<g>
				<path class="st0" d="M53.2,83.1l-7.5-2c0.7-2.8,1.7-5.6,3-8.2l7.1,3.3C54.7,78.4,53.8,80.7,53.2,83.1z M134.5,83
					c-0.6-2.4-1.5-4.7-2.5-6.9l7.1-3.3c1.2,2.6,2.2,5.4,3,8.2L134.5,83z M59.4,69.8L53,65.3c1.7-2.4,3.5-4.6,5.6-6.7l5.5,5.5
					C62.4,65.9,60.8,67.8,59.4,69.8z M128.3,69.8c-1.4-2-3-3.9-4.7-5.6l5.5-5.5c2.1,2.1,3.9,4.3,5.6,6.7L128.3,69.8z M69.7,59.4
					l-4.5-6.4c2.4-1.7,4.9-3.1,7.5-4.4l3.3,7.1C73.8,56.8,71.7,58,69.7,59.4z M118,59.4c-2-1.4-4.1-2.6-6.4-3.7l3.3-7.1
					c2.6,1.2,5.2,2.7,7.5,4.4L118,59.4z M82.9,53.2l-2-7.5c2.8-0.8,5.7-1.3,8.6-1.5l0.7,7.8C87.7,52.2,85.3,52.6,82.9,53.2z
					 M104.7,53.2c-2.4-0.6-4.8-1.1-7.2-1.3l0.7-7.8c2.9,0.2,5.8,0.8,8.6,1.5L104.7,53.2z"/>
			</g>
			<g>
				<path class="st0" d="M143.7,93.9h-7.8c0-1.2,0-2.4-0.1-3.6l7.8-0.7C143.7,91,143.7,92.4,143.7,93.9z"/>
			</g>
		</g>
		<g>
			<path class="st0" d="M93.9,106.7c-9.5,0-17.3-7.8-17.3-17.3c0-9.5,7.8-17.3,17.3-17.3c9.5,0,17.3,7.8,17.3,17.3
				C111.2,98.9,103.4,106.7,93.9,106.7z M93.9,79.9c-5.2,0-9.5,4.3-9.5,9.5c0,5.2,4.3,9.5,9.5,9.5c5.2,0,9.5-4.3,9.5-9.5
				C103.4,84.1,99.1,79.9,93.9,79.9z"/>
		</g>
		<g>
			<path class="st0" d="M121.2,133.1h-7.8v-15.5c0-5.2-4.3-9.5-9.5-9.5H83.8c-5.2,0-9.5,4.3-9.5,9.5v15.5h-7.8v-15.5
				c0-9.5,7.8-17.3,17.3-17.3h20.1c9.5,0,17.3,7.8,17.3,17.3V133.1z"/>
		</g>
	</g>
</g>
</svg>
