<?xml version="1.0" encoding="utf-8"?>
<!-- Generator: Adobe Illustrator 27.0.1, SVG Export Plug-In . SVG Version: 6.00 Build 0)  -->
<svg version="1.1" id="Layer_1" xmlns="http://www.w3.org/2000/svg" xmlns:xlink="http://www.w3.org/1999/xlink" x="0px" y="0px"
	 viewBox="0 0 467 227.3" style="enable-background:new 0 0 467 227.3;" xml:space="preserve">
<style type="text/css">
	.st0{fill:#01ACD6;}
	.st1{fill:#FFFFFF;}
	.st2{font-family:'Montserrat-SemiBold';}
	.st3{font-size:99px;}
	.st4{fill:#282D33;}
</style>
<g>
	<circle class="st0" cx="93.3" cy="124.6" r="93.3"/>
	<text transform="matrix(1 0 0 1 64.4899 153.5987)" class="st1 st2 st3">2</text>
	<g>
		<g>
			<g>
				<path class="st1" d="M372,198.6h-75.9c-4.1,0-7.5-3.4-7.5-7.5V12.1c0-4.1,3.4-7.5,7.5-7.5h126c4.1,0,7.5,3.4,7.5,7.5v106.1
					L372,198.6z"/>
				<path class="st4" d="M372,203.2h-75.9c-6.6,0-12-5.4-12-12V12.1c0-6.6,5.4-12.1,12-12.1h126c6.6,0,12,5.4,12,12.1v106.1H425
					V12.1c0-1.6-1.3-3-2.9-3h-126c-1.6,0-2.9,1.3-2.9,3v179.1c0,1.6,1.3,2.9,2.9,2.9H372V203.2z"/>
			</g>
			<g>
				<rect x="353.4" y="12.8" class="st4" width="11.3" height="9.1"/>
			</g>
		</g>
		<g>
			<path class="st1" d="M452.8,227.3v-11.5c5.8-4.4,9.6-11.3,9.6-19.1v-41.4L462,146c0-4.9-4-8.9-8.9-8.9c-4.9,0-8.9,1.8-8.9,6.7
				v-2.2c0-4.9-4-8.9-8.9-8.9c-4.9,0-8.9,4-8.9,8.9v-4.4c0-4.9-4-8.9-8.9-8.9c-4.9,0-8.9,4-8.9,8.9v5c0-12-0.1-51.2-0.1-51.2
				c0-5.1-4.1-9.2-9.2-9.2c-5.1,0-9.2,4.1-9.2,9.2l0,89.8l-0.2-4.4V158c0-7.5-6.1-13.6-13.6-13.6h-4.5c-0.2,0,0.2,0,0,0v17
				c0,0,0,0,0,0V184l25.7,30.6c0,0,6.7,4.2,10.8,5.2v7.5H452.8z"/>
			<path class="st4" d="M457.4,227.3h-9.1v-13.8l1.8-1.4c4.9-3.7,7.8-9.3,7.8-15.5v-41.4l-0.4-8.9c0-2.6-1.9-4.6-4.3-4.6
				c-4.3,0-4.3,1.4-4.3,2.1v0h-9.1v-2.2c0-2.4-1.9-4.3-4.3-4.3c-2.4,0-4.3,1.9-4.3,4.3h-9.1v-4.4c0-2.4-1.9-4.3-4.3-4.3
				c-2.4,0-4.3,1.9-4.3,4.3v5c0,0,0,0,0,0h-9.1c0-12-0.1-51.2-0.1-51.2c0-2.6-2.1-4.6-4.6-4.6c-2.6,0-4.6,2.1-4.6,4.6l0,89.8
				l-9.1,0.2l-0.2-4.4l0-18.5c0-5-4-9-9-9v12l0.6,3.3l-0.6,0.3v17.8l24.2,28.7c2.5,1.5,6.6,3.7,8.8,4.3l3.5,0.8v11h-9.1V223
				c-4-1.7-8.1-4.2-8.7-4.6l-0.6-0.4l-27.2-32.4v-23.8l-0.4-3.3l0.4-0.2v-9.9l-0.3,0l0.3-5.1v-3.1l0.2,0l0-0.4l8.9,0
				c3.4,0,6.5,0.9,9.2,2.5l0-51.5c0-7.6,6.2-13.7,13.7-13.7c7.6,0,13.7,6.2,13.7,13.7l0,0c0,0,0,18.1,0.1,33.5
				c1.4-0.5,2.8-0.7,4.3-0.7c4.7,0,8.9,2.4,11.3,6.1c1.9-1.1,4.1-1.7,6.5-1.7c4.5,0,8.5,2.2,10.9,5.6c1.8-0.8,4.1-1.2,6.8-1.2
				c7.4,0,13.4,6,13.4,13.4l0.4,8.9l0,41.7c0,8.2-3.5,15.9-9.6,21.3V227.3z"/>
		</g>
		<g>
			<g>
				<path class="st1" d="M281.5,108.4l0.1-0.2l30.2,0.5c0,0.2,0,0.4,0,0.6l-0.1,5c-0.1,8.3-7,15-15.3,14.8l-3.3-0.1l-4.7,14
					c9.5,7,15.9,20.3,15.9,35.7c0,11.8-3.8,22.4-9.8,29.8h-26.4v-69.9L281.5,108.4z"/>
				<path class="st4" d="M296.7,213.1h-33.1v-75.4l15.2-34.1l37.3,0.6l0.3,4.2c0,0.4,0,0.7,0,1l-0.1,5c-0.2,10.7-9,19.3-19.6,19.3
					l-0.3,0l-2.6,7.8c9.4,8.4,15.1,22.3,15.1,37.2c0,12.5-3.9,24.1-10.9,32.7L296.7,213.1z M272.7,204h19.6
					c4.8-6.8,7.5-15.9,7.5-25.3c0-13.4-5.4-25.6-14-32l-2.7-2l6.8-20.4l6.7,0.2c5.8,0,10.5-4.6,10.6-10.4l0-1.1l-22.7-0.3
					l-11.9,26.8V204z"/>
			</g>
		</g>
		<rect x="257.1" y="203.4" class="st0" width="70.3" height="23.9"/>
		<g>
			<path class="st4" d="M353.4,76.5h-45.5V35.5h45.5V76.5z M317,67.4h27.3V44.6H317V67.4z"/>
		</g>
		<g>
			<rect x="307.3" y="85.6" class="st4" width="69.2" height="9.1"/>
		</g>
		<g>
			<rect x="323.3" y="103.8" class="st4" width="53.3" height="9.1"/>
		</g>
		<g>
			<rect x="323.3" y="122" class="st4" width="53.3" height="9.1"/>
		</g>
		<g>
			<rect x="307.3" y="140.2" class="st4" width="51.6" height="9.1"/>
		</g>
	</g>
</g>
</svg>
