<?xml version="1.0" encoding="utf-8"?>
<!-- Generator: Adobe Illustrator 27.0.1, SVG Export Plug-In . SVG Version: 6.00 Build 0)  -->
<svg version="1.1" id="Layer_1" xmlns="http://www.w3.org/2000/svg" xmlns:xlink="http://www.w3.org/1999/xlink" x="0px" y="0px"
	 viewBox="0 0 100.4 100.4" style="enable-background:new 0 0 100.4 100.4;" xml:space="preserve">
<style type="text/css">
	.st0{fill:#FFFFFF;}
	.st1{fill:#007EFF;}
</style>
<g>
	<circle class="st0" cx="50.2" cy="50.2" r="50.2"/>
	<path class="st1" d="M14.1,48c1.8-2.7,4.3-4.8,6.5-7.1c1.5-1.5,3.1-1.5,4.6,0c5.6,5.7,11.2,11.2,16.8,17c11-11,22-22,33-33
		c0.9-0.9,1.9-1.5,3.2-1c2.7,1.6,4.5,4.3,6.8,6.3c1.6,1.6,1.6,3.1,0,4.6c-5.8,5.8-11.6,11.6-17.4,17.4C60,60,52.2,67.8,44.4,75.6
		c-0.9,0.9-1.9,1.4-3.2,1C31.9,68,22.6,58.7,14.1,49.2C14.1,48.8,14.1,48.4,14.1,48z"/>
</g>
</svg>
