<?xml version="1.0" encoding="utf-8"?>
<!-- Generator: Adobe Illustrator 27.0.1, SVG Export Plug-In . SVG Version: 6.00 Build 0)  -->
<svg version="1.1" id="Layer_1" xmlns="http://www.w3.org/2000/svg" xmlns:xlink="http://www.w3.org/1999/xlink" x="0px" y="0px"
	 viewBox="0 0 133.6 201" style="enable-background:new 0 0 133.6 201;" xml:space="preserve">
<style type="text/css">
	.st0{fill:#FFFFFF;}
</style>
<path class="st0" d="M133.6,66.8c0-3.4-6.2-6.3-6.7-9.5c-0.5-3.3,4.5-8,3.4-11.1c-1-3.2-7.8-4-9.3-7c-1.5-3,1.8-8.9-0.2-11.6
	c-2-2.7-8.7-1.4-11-3.8c-2.4-2.4-1.1-9.1-3.8-11c-2.7-2-8.7,1.3-11.6-0.2c-3-1.5-3.8-8.3-7-9.3c-3.1-1-7.8,4-11.1,3.4
	C73.1,6.2,70.2,0,66.8,0c-3.4,0-6.3,6.2-9.5,6.7c-3.4,0.5-8-4.5-11.1-3.4c-3.2,1-4,7.8-7,9.3c-3,1.5-9-1.8-11.6,0.2
	c-2.7,2-1.4,8.7-3.8,11c-2.4,2.4-9.1,1.1-11,3.8c-2,2.7,1.3,8.6-0.2,11.6c-1.5,3-8.3,3.8-9.3,7c-1,3.1,4,7.8,3.4,11.1
	C6.2,60.5,0,63.4,0,66.8c0,3.4,6.2,6.3,6.7,9.5c0.5,3.3-4.5,8-3.4,11.1c1,3.2,7.8,4,9.3,7c1.5,3-1.8,9,0.2,11.6
	c2,2.7,8.7,1.4,11,3.8c2.4,2.4,1.1,9.1,3.8,11c1.6,1.2,4.4,0.5,7,0V201l33.2-22.9l33.2,22.9v-79.8c2,0.3,4,0.6,5.2-0.3
	c2.7-2,1.4-8.7,3.8-11c2.4-2.4,9.1-1.1,11-3.8c2-2.7-1.3-8.7,0.2-11.6c1.5-3,8.3-3.8,9.3-7c1-3.1-4-7.8-3.4-11.1
	C127.5,73.1,133.6,70.2,133.6,66.8z M70.1,109.7h-2.4h-4.1c-22.3-1.7-39.8-20.2-39.8-42.9c0-23.8,19.3-43,43-43
	c23.8,0,43,19.3,43,43C109.9,89.5,92.3,108.1,70.1,109.7z"/>
</svg>
