<?xml version="1.0" encoding="utf-8"?>
<!-- Generator: Adobe Illustrator 27.0.1, SVG Export Plug-In . SVG Version: 6.00 Build 0)  -->
<svg version="1.1" id="Layer_1" xmlns="http://www.w3.org/2000/svg" xmlns:xlink="http://www.w3.org/1999/xlink" x="0px" y="0px"
	 viewBox="0 0 448.9 217.5" style="enable-background:new 0 0 448.9 217.5;" xml:space="preserve">
<style type="text/css">
	.st0{fill:#01ACD6;}
	.st1{fill:#FFFFFF;}
	.st2{font-family:'Montserrat-SemiBold';}
	.st3{font-size:99px;}
	.st4{fill:#282D33;}
</style>
<g>
	<circle class="st0" cx="93.3" cy="114.6" r="93.3"/>
	<text transform="matrix(1 0 0 1 74.4387 143.5073)" class="st1 st2 st3">1</text>
	<g>
		<g>
			<path class="st1" d="M247.4,164.5v16.6c0,3.2,3.3,6.7,6.5,6.7h185.8c3.2,0,5.1-3.3,5.1-6.5v-16.9H247.4z"/>
			<path class="st4" d="M439.6,192.1H253.8c-5.5,0-10.6-5.3-10.6-10.9v-20.8h205.7v21.1C448.9,186.6,445.4,192.1,439.6,192.1z
				 M251.5,168.7v12.5c0,1,1.5,2.6,2.3,2.6h185.8c0.3,0,0.9-1,0.9-2.3v-12.7H251.5z"/>
		</g>
		<g>
			<path class="st1" d="M324.1,188c-0.3,4.1,0.4,13.3-0.5,17.8c-0.8,4.1-1.4,4.3-3.6,5.5c-1.2,0.7-3.3,1.6-5.1,2.4l0,0L324.1,188z"
				/>
			<path class="st4" d="M316.6,217.5l-3.3-7.7c2.1-0.9,3.8-1.7,4.7-2.2l0.3-0.2c0.3-0.1,0.5-0.3,0.7-0.4c0.1-0.2,0.3-0.8,0.5-2.1
				c0.5-2.3,0.4-6.8,0.3-10.4c0-2.7-0.1-5.2,0.1-7l8.3,0.7c-0.1,1.4-0.1,3.8-0.1,6.2c0.1,4.4,0.1,8.9-0.5,12.1c-1,5-2.2,6.4-5.4,8.2
				L322,215C320.5,215.8,318.3,216.8,316.6,217.5z"/>
		</g>
		<g>
			<path class="st1" d="M376.9,213.7c-1.8-0.8-3.9-1.7-5.1-2.4c-2.2-1.2-2.6-1.4-3.4-5.5c-0.9-4.5-0.2-13.5-0.5-17.6L376.9,213.7z"
				/>
			<path class="st4" d="M375.2,217.5c-1.7-0.7-4-1.8-5.4-2.6l-0.2-0.1c-3.4-1.9-4.4-3.4-5.3-8.2c-0.6-3.2-0.6-7.6-0.5-12
				c0-2.4,0.1-4.7-0.1-6.1l8.3-0.7c0.1,1.8,0.1,4.3,0.1,6.9c0,3.5-0.1,7.9,0.4,10.2c0.3,1.3,0.4,1.9,0.5,2.2
				c0.2,0.1,0.4,0.2,0.7,0.4c1.1,0.6,2.8,1.4,4.9,2.3L375.2,217.5z"/>
		</g>
		<g>
			<rect x="309.5" y="209.2" class="st4" width="73" height="8.4"/>
		</g>
		<g>
			<path class="st1" d="M272.1,43.8h-19.4c-3,0-5.4,2.4-5.4,5.4v115.4h197.3V49.2c0-3-2.4-5.4-5.4-5.4h-19.3H272.1z"/>
			<path class="st4" d="M448.8,168.8H243.2V49.2c0-5.3,4.3-9.6,9.6-9.6h19.4V48h-19.4c-0.7,0-1.2,0.5-1.2,1.2v111.2h188.9V49.2
				c0-0.7-0.5-1.2-1.2-1.2h-19.3v-8.4h19.3c5.3,0,9.6,4.3,9.6,9.6V168.8z"/>
		</g>
		<g>
			<rect x="262.8" y="59.5" class="st0" width="24.5" height="89.3"/>
			<rect x="404.7" y="59.5" class="st0" width="24.3" height="89.3"/>
		</g>
		<g>
			<g>
				<rect x="403" y="40.3" class="st4" width="8.4" height="108.5"/>
			</g>
			<g>
				<polygon class="st4" points="289.2,148.8 280.9,148.8 280.9,0 373.2,0 373.2,8.4 289.2,8.4 				"/>
			</g>
			<g>
				<polygon class="st0" points="378.9,32.5 411.1,32.5 378.9,0.2 				"/>
			</g>
			<g>
				<rect x="305.6" y="39.6" class="st4" width="45.8" height="8.4"/>
			</g>
			<g>
				<rect x="305.6" y="57.9" class="st4" width="78.5" height="8.4"/>
			</g>
			<g>
				<rect x="305.6" y="76.1" class="st4" width="78.5" height="8.4"/>
			</g>
			<g>
				<rect x="305.6" y="94.3" class="st4" width="78.5" height="8.4"/>
			</g>
			<g>
				<rect x="305.6" y="112.5" class="st4" width="78.5" height="8.4"/>
			</g>
			<g>
				<rect x="305.6" y="130.7" class="st4" width="78.5" height="8.4"/>
			</g>
		</g>
	</g>
</g>
</svg>
