<?xml version="1.0" encoding="utf-8"?>
<!-- Generator: Adobe Illustrator 27.0.1, SVG Export Plug-In . SVG Version: 6.00 Build 0)  -->
<svg version="1.1" id="Layer_1" xmlns="http://www.w3.org/2000/svg" xmlns:xlink="http://www.w3.org/1999/xlink" x="0px" y="0px"
	 viewBox="0 0 176.2 161.6" style="enable-background:new 0 0 176.2 161.6;" xml:space="preserve">
<style type="text/css">
	.st0{fill:#FFFFFF;}
</style>
<g>
	<g>
		<path class="st0" d="M102.5,0c-5.9,0-11.2,3-14.3,7.5C85.1,3,79.8,0,73.9,0H0.2v85.5h7.2V7.2h66.5c5.6,0,10.1,4.5,10.1,10.1v68.2
			h1.1h6.1h1.1V17.3c0-5.6,4.5-10.1,10.1-10.1H169v123.1h-8.9v7.2h16.2V0H102.5z"/>
		<rect x="17.7" y="18.1" class="st0" width="32.6" height="7.2"/>
		<rect x="17.7" y="39.3" class="st0" width="55" height="7.2"/>
		<rect x="17.7" y="54.9" class="st0" width="55" height="7.2"/>
		<rect x="17.7" y="70.4" class="st0" width="39.3" height="7.2"/>
		<path class="st0" d="M146.2,92H5.9C2.7,92,0,94.6,0,97.9v57.7c0,3.3,2.7,5.9,5.9,5.9h140.3c3.3,0,5.9-2.7,5.9-5.9V97.9
			C152.2,94.6,149.5,92,146.2,92z M145,154.4H7.2V99.2H145V154.4z"/>
		<rect x="15.4" y="107.9" class="st0" width="11" height="7.2"/>
		<rect x="33.8" y="107.9" class="st0" width="11" height="7.2"/>
		<rect x="52.2" y="107.9" class="st0" width="11" height="7.2"/>
		<rect x="70.6" y="107.9" class="st0" width="11" height="7.2"/>
		<rect x="89" y="107.9" class="st0" width="11" height="7.2"/>
		<rect x="107.4" y="107.9" class="st0" width="11" height="7.2"/>
		<rect x="125.8" y="107.9" class="st0" width="11" height="7.2"/>
		<rect x="15.4" y="123.2" class="st0" width="11" height="7.2"/>
		<rect x="33.8" y="123.2" class="st0" width="11" height="7.2"/>
		<rect x="52.2" y="123.2" class="st0" width="11" height="7.2"/>
		<rect x="70.6" y="123.2" class="st0" width="11" height="7.2"/>
		<rect x="89" y="123.2" class="st0" width="11" height="7.2"/>
		<rect x="107.4" y="123.2" class="st0" width="11" height="7.2"/>
		<rect x="125.8" y="123.2" class="st0" width="11" height="7.2"/>
		<rect x="15.4" y="138.5" class="st0" width="11" height="7.2"/>
		<rect x="33.8" y="138.5" class="st0" width="11" height="7.2"/>
		<rect x="52.2" y="138.5" class="st0" width="66.4" height="7.2"/>
		<rect x="125.8" y="138.5" class="st0" width="11" height="7.2"/>
		<rect x="126.2" y="18.9" class="st0" width="7.2" height="10.9"/>
		
			<rect x="111.3" y="28.3" transform="matrix(0.4998 -0.8662 0.8662 0.4998 28.2935 116.3859)" class="st0" width="7.2" height="10.9"/>
		
			<rect x="110.1" y="47.7" transform="matrix(0.8663 -0.4996 0.4996 0.8663 -10.1916 64.5909)" class="st0" width="10.9" height="7.2"/>
		
			<rect x="142.5" y="44.8" transform="matrix(0.4996 -0.8662 0.8662 0.4996 29.5937 151.6835)" class="st0" width="7.2" height="10.9"/>
		<rect x="140" y="29" transform="matrix(0.8661 -0.4999 0.4999 0.8661 3.187 77.0757)" class="st0" width="10.9" height="7.2"/>
		<polygon class="st0" points="126.9,76.1 126.8,85.5 134,85.5 134.1,76.1 147.9,76.3 130.7,45.8 113,75.9 		"/>
	</g>
</g>
</svg>
